<svg width="16" height="16" viewBox="0 0 16 16" fill="none" xmlns="http://www.w3.org/2000/svg">
<path d="M6.68724 2.1811C7.2237 1.05096 8.7737 1.05096 9.31016 2.1811L10.2373 4.13428C10.4503 4.58306 10.8621 4.89412 11.3384 4.96609L13.4116 5.27929C14.6111 5.46052 15.0901 6.99319 14.2221 7.87288L12.722 9.39322C12.3773 9.74255 12.22 10.2459 12.3014 10.7391L12.6555 12.8859C12.8604 14.128 11.6064 15.0753 10.5335 14.4888L8.67925 13.4752C8.25319 13.2423 7.7442 13.2423 7.31815 13.4752L5.46387 14.4888C4.39096 15.0753 3.13698 14.128 3.34189 12.8859L3.69602 10.7391C3.77739 10.2459 3.62011 9.74255 3.27542 9.39322L1.77528 7.87289C0.907275 6.99319 1.38625 5.46052 2.5858 5.27929L4.65895 4.96609C5.13529 4.89412 5.54708 4.58306 5.7601 4.13428L6.68724 2.1811Z" fill="#FFC14A"/>
</svg>
