<svg width="24" height="24" viewBox="0 0 24 24" fill="none" xmlns="http://www.w3.org/2000/svg">
<path d="M15.439 11.8283V10.7847L16.649 11.3288C17.179 11.5672 17.7865 11.5632 18.3134 11.318L19.5586 10.7383V11.8283C19.5586 12.9659 18.6364 13.8881 17.4988 13.8881C16.3612 13.8881 15.439 12.9659 15.439 11.8283Z" stroke="#525D73" stroke-linecap="round"/>
<path d="M21.5214 9.41092L18.1 7.89027C17.707 7.71561 17.2584 7.71561 16.8655 7.89027L13.444 9.41092C13.2434 9.50006 13.2434 9.78472 13.444 9.87387L16.8655 11.3945C17.2584 11.5692 17.707 11.5692 18.1 11.3945L21.5214 9.87387C21.722 9.78472 21.722 9.50006 21.5214 9.41092Z" stroke="#525D73" stroke-linecap="round" stroke-linejoin="round"/>
<path d="M15.4704 15.4526C15.5734 15.4163 15.6791 15.3827 15.7872 15.352C15.9625 15.3021 16.1501 15.3557 16.2786 15.4814L17.1104 16.2952C17.3154 16.4957 17.6501 16.4957 17.8551 16.2952L18.6869 15.4814C18.8154 15.3557 19.003 15.3021 19.1783 15.352C20.6472 15.7699 21.6719 16.7142 21.6719 17.8121C21.6719 18.3716 21.203 18.8253 20.6246 18.8253H16.6627" stroke="#525D73" stroke-linecap="round" stroke-linejoin="round"/>
<line x1="13.3945" y1="10.1426" x2="13.3945" y2="12.3089" stroke="#525D73" stroke-linecap="round"/>
<path d="M5.49679 9.83874V8.20265L7.76872 9.04934C8.2192 9.21723 8.71509 9.21723 9.16557 9.04934L11.4375 8.20265V9.83874C11.4375 11.4792 10.1076 12.8091 8.46715 12.8091C6.82666 12.8091 5.49679 11.4792 5.49679 9.83874Z" stroke="#525D73" stroke-linecap="round"/>
<path d="M14.3889 6.07475L9.37377 3.84582C8.79775 3.58981 8.14023 3.58981 7.56421 3.84582L2.5491 6.07475C2.2551 6.20542 2.2551 6.62267 2.5491 6.75334L7.56421 8.98228C8.14023 9.23829 8.79775 9.23829 9.37377 8.98228L14.3889 6.75334C14.6829 6.62267 14.6829 6.20542 14.3889 6.07475Z" stroke="#525D73" stroke-linecap="round" stroke-linejoin="round"/>
<path d="M6.70397 14.9912L7.92324 16.184C8.22366 16.4779 8.71432 16.4779 9.01474 16.184L10.234 14.9912C10.4224 14.807 10.6973 14.7284 10.9543 14.8015C13.1074 15.4141 14.6094 16.7982 14.6094 18.4074C14.6094 19.2277 13.9221 19.8926 13.0743 19.8926H3.8637C3.01589 19.8926 2.3286 19.2277 2.3286 18.4074C2.3286 16.7982 3.83059 15.4141 5.98366 14.8015C6.24065 14.7284 6.51562 14.807 6.70397 14.9912Z" stroke="#525D73" stroke-linecap="round" stroke-linejoin="round"/>
<line x1="2.94922" y1="7.03125" x2="2.94922" y2="10.5551" stroke="#525D73" stroke-linecap="round"/>
</svg>
